# xmcd
#
# Track frame offsets: 
#        150
#        1875
#        18639
#        32641
#        50196
#        64574
#        79148
#        93257
#        113475
#        128025
#        132703
#
# Disc length: 2040 seconds
#
# Revision: 1
# Processed by: cddbd v1.5.2PL0 Copyright (c) Steve Scherf et al.
# Submitted via: ExactAudioCopyFreeDBPlugin 1.0
#
DISCID=8b07f60b
DTITLE=Kenichrio Nishihara And The Jazcrafts - Melancholic Jazz Moon B
DTITLE=LK
DYEAR=2013
DGENRE=Jazz
TTITLE0=Feelin' Blue Introduction
TTITLE1=Feelin' Blue
TTITLE2=Tribute to AJ (Jazcrafts Mix)
TTITLE3=Travelin' Man
TTITLE4=E.V.A.
TTITLE5=Coco
TTITLE6=Yellow Summer (Jazcrafts Mix)
TTITLE7=Montara (Jazcrafts Mix)
TTITLE8=Inside Your Love (Jazcrafts Mix)
TTITLE9=Smilin’ Billy Suite Introduction
TTITLE10=Smilin’ Billy Suite (Jazcrafts Mix)
EXTD=YEAR: 2013
EXTT0=
EXTT1=
EXTT2=
EXTT3=
EXTT4=
EXTT5=
EXTT6=
EXTT7=
EXTT8=
EXTT9=
EXTT10=
PLAYORDER=
